<?xml version="1.0" encoding="UTF-8"?>
<svg id="Calque_2" data-name="Calque 2" xmlns="http://www.w3.org/2000/svg" viewBox="0 0 774.62 108.36">
  <defs>
    <style>
      .cls-1 {
        fill: #fff;
      }
    </style>
  </defs>
  <g id="Calque_1-2" data-name="Calque 1">
    <g>
      <path class="cls-1" d="M9.22,35.51c2.52-9.77,8.15-18.12,16.9-25.05C34.86,3.53,44.11.06,53.88.06h47.27l-6.14,23.63h-47.27c-3.23,0-6.28,1.14-9.16,3.43l55.48.12-2.13,8.27c-2.52,9.77-8.15,18.12-16.9,25.05-8.74,6.93-18,10.4-27.77,10.4H0l6.14-23.63h47.27c3.23,0,6.28-1.14,9.16-3.43l.18-.12H7.09l2.13-8.27Z"/>
      <path class="cls-1" d="M104.93,0h47.62c4.17,0,7.96.63,11.34,1.89,4.41,1.73,8.07,4.57,10.99,8.51,5.12,6.93,6.42,15.28,3.9,25.05-2.52,9.77-8.15,18.12-16.9,25.05-4.96,3.94-10.12,6.77-15.48,8.51-4.02,1.26-8.11,1.89-12.29,1.89h-23.99l-3.07,11.82h-23.63L104.93,0ZM122.42,23.63l-6.14,23.63h23.99c3.23,0,6.31-1.16,9.25-3.49,2.93-2.32,4.81-5.1,5.64-8.33.83-3.23.38-6.01-1.33-8.33-1.71-2.32-4.19-3.49-7.42-3.49h-23.99Z"/>
      <path class="cls-1" d="M199.52,59.14l-3.07,11.82h-23.63l9.22-35.45c2.52-9.77,8.15-18.12,16.9-25.05C207.67,3.53,216.93.06,226.7.06h47.27l-18.43,70.9h-23.63l3.07-11.82h-35.45ZM241.11,35.51l3.07-11.82h-23.63c-3.23,0-6.31,1.16-9.25,3.49-2.93,2.32-4.81,5.1-5.64,8.33h35.45Z"/>
      <path class="cls-1" d="M294.52,70.96c-4.18,0-7.94-.63-11.29-1.89-4.45-1.73-8.13-4.57-11.05-8.51-5.12-6.93-6.42-15.28-3.9-25.05,2.56-9.77,8.21-18.12,16.96-25.05,4.96-3.94,10.1-6.77,15.42-8.51,4.02-1.26,8.11-1.89,12.29-1.89h35.57l-6.14,23.63h-35.57c-3.23,0-6.3,1.16-9.22,3.49-2.92,2.32-4.81,5.1-5.67,8.33-.83,3.23-.38,6.01,1.33,8.33,1.71,2.32,4.22,3.49,7.53,3.49h35.45l-6.14,23.63h-35.57Z"/>
      <path class="cls-1" d="M372.04,27.24h32.02l-4.31,16.54h-31.9c1.65,2.36,4.14,3.54,7.44,3.54h35.45l-6.14,23.63h-35.57c-4.17,0-7.94-.63-11.28-1.89-4.45-1.73-8.13-4.57-11.05-8.51-5.12-6.93-6.42-15.28-3.9-25.05,2.56-9.77,8.21-18.12,16.96-25.05,4.96-3.94,10.1-6.77,15.42-8.51,4.02-1.26,8.11-1.89,12.29-1.89h35.57l-6.14,23.63h-35.57c-3.23,0-6.28,1.14-9.16,3.43l-.12.12Z"/>
      <path class="cls-1" d="M503.85.06c9.77,0,17.21,3.47,22.33,10.4,5.12,6.93,6.42,15.28,3.9,25.05l-3.01,11.7h-23.63l17.43,23.75h-33.32l-17.43-23.75h-2.13l-6.2,23.75h-23.63L456.59.06h47.27ZM505.15,27.24l.06-.12c-1.77-2.28-4.27-3.43-7.5-3.43h-23.63l-.95,3.54h32.02Z"/>
      <path class="cls-1" d="M551.12,59.14l-3.07,11.82h-23.63l9.22-35.45c2.52-9.77,8.15-18.12,16.9-25.05C559.27,3.53,568.53.06,578.29.06h47.27l-18.43,70.9h-23.63l3.07-11.82h-35.45ZM592.71,35.51l3.07-11.82h-23.63c-3.23,0-6.31,1.16-9.25,3.49-2.93,2.32-4.82,5.1-5.64,8.33h35.45Z"/>
      <path class="cls-1" d="M646.12,70.96c-4.17,0-7.94-.63-11.28-1.89-4.45-1.73-8.13-4.57-11.05-8.51-5.12-6.93-6.42-15.28-3.9-25.05,2.56-9.77,8.21-18.12,16.96-25.05,4.96-3.94,10.1-6.77,15.42-8.51,4.02-1.26,8.11-1.89,12.29-1.89h35.57l-6.14,23.63h-35.57c-3.23,0-6.3,1.16-9.22,3.49-2.92,2.32-4.81,5.1-5.67,8.33-.83,3.23-.38,6.01,1.33,8.33,1.71,2.32,4.22,3.49,7.53,3.49h35.45l-6.14,23.63h-35.57Z"/>
      <path class="cls-1" d="M723.64,27.24h32.02l-4.31,16.54h-31.9c1.65,2.36,4.14,3.54,7.44,3.54h35.45l-6.14,23.63h-35.57c-4.18,0-7.94-.63-11.29-1.89-4.45-1.73-8.13-4.57-11.05-8.51-5.12-6.93-6.42-15.28-3.9-25.05,2.56-9.77,8.21-18.12,16.96-25.05,4.96-3.94,10.1-6.77,15.42-8.51,4.02-1.26,8.11-1.89,12.29-1.89h35.57l-6.14,23.63h-35.57c-3.23,0-6.28,1.14-9.16,3.43l-.12.12Z"/>
    </g>
    <g>
      <path class="cls-1" d="M165.06,108.36c-6.7,0-11.62-4.62-11.62-11.12,0-3.73,1.52-7.19,3.96-9.6,2.48-2.44,5.81-3.89,9.51-3.89,2.81,0,5.51.76,7.49,2.15l-.69,3.99c-1.82-1.45-4.26-2.38-6.8-2.38s-4.92.99-6.57,2.71c-1.68,1.68-2.67,4.16-2.67,6.73,0,4.52,3.3,7.62,8.09,7.62,2.08,0,4.13-.63,5.91-1.65l-.73,4.09c-1.72.89-3.8,1.35-5.88,1.35Z"/>
      <path class="cls-1" d="M180.71,97.34c0-3.73,1.39-7.06,3.76-9.57,2.38-2.51,5.64-4.03,9.44-4.03,6.57,0,11.19,4.65,11.19,10.99,0,3.73-1.39,7.06-3.76,9.57-2.38,2.51-5.64,4.03-9.44,4.03-6.6,0-11.19-4.62-11.19-10.99ZM198.4,101.7c1.55-1.78,2.48-4.13,2.48-6.7,0-4.32-2.84-7.43-7.23-7.43-2.51,0-4.72,1.06-6.24,2.84-1.55,1.75-2.48,4.13-2.48,6.7,0,4.29,2.84,7.43,7.2,7.43,2.54,0,4.75-1.09,6.27-2.84Z"/>
      <path class="cls-1" d="M220.27,84.1l-2.24,12.71c-.17.92-.26,1.78-.26,2.54,0,3.33,2.11,5.18,5.28,5.18,3.89,0,5.68-2.61,6.4-6.8l2.41-13.63h4.06l-2.54,14.39c-1.09,6.07-4.65,9.87-10.59,9.87-5.41,0-9.21-3.2-9.21-8.58,0-.96.1-2.01.26-2.97l2.24-12.71h4.19Z"/>
      <path class="cls-1" d="M246.11,84.1h8.68c3.99,0,7,2.48,7,6.4,0,2.05-.79,3.76-1.91,5.02-1.12,1.25-2.57,2.05-4.13,2.38l4.75,10.1h-4.52l-4.36-9.57h-3.86l-1.68,9.57h-4.19l4.22-23.9ZM256.51,93.71c.73-.76,1.09-1.75,1.09-2.84,0-1.98-1.55-3.1-3.56-3.1h-4.39l-1.25,7.19h4.82c1.42,0,2.54-.49,3.3-1.25Z"/>
      <path class="cls-1" d="M278.82,98.63c-1.32-.76-4.32-1.65-5.94-2.81-1.62-1.19-2.31-2.51-2.31-4.42,0-4.59,3.37-7.66,8.15-7.66,2.61,0,5.68.86,7.56,2.21l-.73,4.03c-2.11-1.65-5.02-2.54-7-2.54-2.31,0-3.8,1.29-3.8,3.23,0,1.06.5,1.75,1.98,2.51,1.45.79,4.16,1.58,5.78,2.74,1.58,1.15,2.24,2.67,2.24,4.49,0,4.79-3.5,7.92-8.38,7.92-2.74,0-6.07-.96-8.19-2.44l.76-4.19c2.11,1.78,5.31,2.94,7.59,2.94,2.44,0,4.03-1.42,4.03-3.56,0-.99-.4-1.68-1.75-2.44Z"/>
      <path class="cls-1" d="M296.83,84.1h14.06l-.66,3.7h-9.9l-1.06,6.04h8.48l-.63,3.6h-8.48l-1.22,6.83h10.2l-.66,3.73h-14.36l4.22-23.9Z"/>
      <path class="cls-1" d="M341.09,84.1h4.22l5.28,23.9h-4.32l-1.22-5.84h-9.93l-3.27,5.84h-4.42l13.66-23.9ZM344.32,98.72l-.76-3.6c-.43-1.98-.79-4.13-1.16-6.07h-.07c-1.02,1.95-2.11,3.96-3.2,5.91l-2.11,3.76h7.29ZM339.96,76.84h3.7l1.78,5.41h-2.71l-2.77-5.41Z"/>
      <path class="cls-1" d="M376.36,84.1h4.19l-3.56,20.17h10.73l-.66,3.73h-14.92l4.22-23.9Z"/>
      <path class="cls-1" d="M400.35,83.51l-4.22,9.08h-2.9l3.5-9.08h3.63Z"/>
      <path class="cls-1" d="M409.66,84.1h14.06l-.66,3.7h-9.9l-1.06,6.04h8.48l-.63,3.6h-8.48l-1.22,6.83h10.2l-.66,3.73h-14.36l4.22-23.9Z"/>
      <path class="cls-1" d="M439.46,98.63c-1.32-.76-4.32-1.65-5.94-2.81-1.62-1.19-2.31-2.51-2.31-4.42,0-4.59,3.37-7.66,8.15-7.66,2.61,0,5.68.86,7.56,2.21l-.73,4.03c-2.11-1.65-5.02-2.54-7-2.54-2.31,0-3.8,1.29-3.8,3.23,0,1.06.5,1.75,1.98,2.51,1.45.79,4.16,1.58,5.78,2.74,1.58,1.15,2.24,2.67,2.24,4.49,0,4.79-3.5,7.92-8.38,7.92-2.74,0-6.07-.96-8.19-2.44l.76-4.19c2.11,1.78,5.31,2.94,7.59,2.94,2.44,0,4.03-1.42,4.03-3.56,0-.99-.4-1.68-1.75-2.44Z"/>
      <path class="cls-1" d="M457.47,84.1h8.52c4.16,0,7.39,2.57,7.39,6.73,0,2.28-.89,4.42-2.44,5.94-1.58,1.55-3.89,2.44-6.44,2.44h-5.51l-1.55,8.78h-4.19l4.22-23.9ZM467.97,94.27c.79-.83,1.22-1.95,1.22-3.14,0-2.11-1.65-3.37-3.89-3.37h-4.29l-1.35,7.82h4.82c1.52,0,2.71-.5,3.5-1.32Z"/>
      <path class="cls-1" d="M489.02,84.1h4.22l5.28,23.9h-4.32l-1.22-5.84h-9.93l-3.27,5.84h-4.42l13.66-23.9ZM492.26,98.72l-.76-3.6c-.43-1.98-.79-4.13-1.16-6.07h-.07c-1.02,1.95-2.11,3.96-3.2,5.91l-2.11,3.76h7.29Z"/>
      <path class="cls-1" d="M517.7,108.36c-6.7,0-11.62-4.62-11.62-11.12,0-3.73,1.52-7.19,3.96-9.6,2.48-2.44,5.81-3.89,9.51-3.89,2.81,0,5.51.76,7.49,2.15l-.69,3.99c-1.82-1.45-4.26-2.38-6.8-2.38s-4.92.99-6.57,2.71c-1.68,1.68-2.67,4.16-2.67,6.73,0,4.52,3.3,7.62,8.09,7.62,2.08,0,4.13-.63,5.91-1.65l-.73,4.09c-1.72.89-3.8,1.35-5.88,1.35Z"/>
      <path class="cls-1" d="M536.94,84.1h14.06l-.66,3.7h-9.9l-1.06,6.04h8.48l-.63,3.6h-8.48l-1.22,6.83h10.2l-.66,3.73h-14.36l4.22-23.9Z"/>
    </g>
  </g>
</svg>