<?xml version="1.0" encoding="UTF-8"?>
<svg id="Calque_2" data-name="Calque 2" xmlns="http://www.w3.org/2000/svg" viewBox="0 0 370.17 217.36">
  <defs>
    <style>
      .cls-1 {
        fill: #fafafa;
      }

      .cls-2 {
        fill: #f7f7f7;
      }
    </style>
  </defs>
  <g id="Calque_1-2" data-name="Calque 1">
    <g id="x0dPTq">
      <g>
        <path class="cls-1" d="M.06,68.28C.07,25.93,32.33-3.19,73.9.3c20.14,1.69,35.64,10.57,47.21,26.98,2.15,3.04,1.54,4.36-1.22,6.18-5.7,3.75-11.41,7.53-16.72,11.79-3.39,2.72-4.95,1.88-7.38-1.21-12-15.24-31.03-19.24-46.56-10.08-16.66,9.83-22.49,34.08-13.09,52.54,13.06,25.65,47.79,23.33,61.57,4.47,4.4-6.02,3.32-5.43,9.46-1.33,5.39,3.61,10.67,7.39,16.09,10.96,2.18,1.44,2.92,2.56,1.14,5.06-17.91,25.06-42.78,33.17-71.95,27.76-26.96-5-43.35-22.49-50.7-48.61C.16,79.16-.16,73.32.06,68.28Z"/>
        <path class="cls-1" d="M214.43,99.51c-9.16,0-18.32.08-27.47-.04-3.51-.04-3.68,1.12-1.91,3.69,3.15,4.56,7.57,6.83,12.94,7.56,8.47,1.15,16.31-.41,23.03-5.84,2.47-2,4.06-2.01,6.22.35,3.47,3.81,7.11,7.51,10.95,10.94,2.78,2.48,2.25,4.02-.31,6.26-14.67,12.82-31.72,14.51-49.74,10.31-19.86-4.63-32.24-19.11-34.08-38.83-1.86-19.9,8.35-37.78,26.12-45.77,18.27-8.22,40.37-4.58,53.12,9.17,10.22,11.02,13.35,24.58,12.86,39.25-.11,3.22-2.35,2.65-4.25,2.66-9.16.04-18.31.02-27.47.02,0,.1,0,.19,0,.29ZM199.63,78.9c4.64,0,9.28-.03,13.93.01,2.48.02,2.87-.76,1.59-2.91-3.4-5.69-8.58-8.16-14.93-8.2-6.33-.04-11.6,2.4-15.19,7.86-1.36,2.07-1.31,3.32,1.67,3.27,4.31-.08,8.62-.02,12.93-.02Z"/>
        <path class="cls-2" d="M188.08,169.66c.65-.05,1.64.16,1.91-.19,7.03-8.98,17.06-8.51,26.9-8.64,1-.01,2.01.11,2.99-.03,1.55-.21,3.7.92,4.5-1,.81-1.95-.34-3.89-1.56-5.5-3.22-4.26-10.09-4.63-16.49-1.27-1.98,1.04-3.55,4.31-5.75,3.07-3.1-1.76-5.55-4.7-8.2-7.21-1.14-1.07-.38-2.02.42-3,8.97-10.98,32.95-12.24,42.86-2.15,3.22,3.28,5.17,7.28,6.09,11.82.22,1.09-.73,3.05,1.41,3.11,1.52.04,1.4-1.62,1.82-2.62,6.78-16.33,24.37-23.79,40.81-17.26,3.28,1.3,6.26,3.09,8.86,5.5.72.67,2.05,1.47,1.59,2.32-2.09,3.87-5.89,6.16-9.01,9.08-1.97,1.84-3.24-.57-4.61-1.49-5.99-4-13.51-3.65-17.87.91-4.92,5.14-5.36,15.4-.91,21.33,4.23,5.64,10.93,6.69,17.87,3.04,1.95-1.03,3.71-4.11,5.98-2.63,3.43,2.24,6.43,5.25,9.24,8.28,1.38,1.49-.64,2.63-1.64,3.6-14.26,13.88-40.87,8.92-49.34-9.18-.49-1.05-.87-2.16-1.33-3.23-.31-.73-.48-1.75-1.54-1.63-1.46.17-1.08,1.43-1.09,2.33-.04,4.83-.14,9.66.03,14.48.09,2.57-.72,3.61-3.37,3.48-3.49-.17-6.99-.03-10.49-.05-.66,0-1.77.07-1.9-.22-2.3-5.38-5.02-1.19-7.23-.16-13.03,6.08-32.7-1.57-30.99-17.79.03-.32-.53-.7-.81-1.05-1.37-2.24-.18-4.13.85-6.04ZM212.6,182.86c4.64-.04,8.55-1.5,11.4-5.2.94-1.22,1.43-2.74.89-4.22-.61-1.64-2.25-1.05-3.47-1.05-3.81,0-7.62.09-11.43.22-2.43.08-4.04,1.4-4.78,3.67-.62,1.91-.11,3.62,1.37,4.97,1.74,1.59,3.98,1.43,6.03,1.6Z"/>
        <path class="cls-1" d="M247.74,66.73c0-20.64.1-41.28-.09-61.92-.04-3.81,1.06-4.87,4.77-4.66,5.48.32,10.99.2,16.48.03,3.08-.09,4.01,1.13,4,4.11-.07,41.45-.08,82.89.02,124.34,0,3.47-1.38,4.22-4.47,4.11-5.16-.19-10.34-.32-15.48.03-4.06.28-5.39-.84-5.34-5.13.23-20.3.1-40.61.1-60.92Z"/>
        <path class="cls-1" d="M188.08,169.66c-1.03,1.91-2.22,3.8-.85,6.04-5.43,19.84-27.4,26.52-41.37,15.12-.19-.15-.61-.02-1.48-.02,0,7.25-.19,14.5.08,21.74.14,3.81-1.27,4.82-4.91,4.83-12.2.03-12.23.16-12.18-11.99.03-7.32.18-14.63.28-21.94.79-3.53.8-7.05,0-10.58-.1-10.47-.15-20.95-.32-31.42-.04-2.37.86-3.29,3.23-3.2,3.16.12,6.33.15,9.49,0,2.87-.15,5,.29,4.3,4.72,6.45-4.73,12.86-7.03,20.11-6.11,13.19,1.67,23.5,13.42,23.6,26.84.01,2,.02,4,.03,5.99ZM171.09,166.6c.06-8.77-5.7-15.13-13.66-15.1-7.9.04-13.38,6.04-13.45,14.72-.08,9.09,5.31,15.32,13.31,15.4,7.92.08,13.74-6.26,13.8-15.02Z"/>
        <path class="cls-2" d="M332.25,172.37c-5.66,0-11.32-.04-16.99.03-1.22.01-2.94-.69-3.52.94-.47,1.32.65,2.5,1.46,3.51,4.59,5.72,10.73,5.98,17.24,4.74.81-.15,1.56-.6,2.37-.74,2.81-.5,4.93-4.27,7.48-3.14,2.86,1.27,4.83,4.44,7.37,6.57,2.68,2.24,1.7,3.78-.57,5.44-9.56,7-20.14,8.23-31.33,5.4-13.5-3.42-21.15-12.54-22.54-26.51-1.16-11.68,5.73-23.57,16.74-28.87,11.57-5.57,26.18-3.58,34.89,4.96,7,6.86,8.97,15.68,9.19,25.09.07,2.86-2,2.57-3.81,2.57-5.99.02-11.99,0-17.98,0ZM324,160.28c0,.07,0,.14,0,.21,2.99,0,5.99-.13,8.98.03,3.35.18,3.15-1.3,1.99-3.56-2.33-4.52-6.21-6.24-11.05-6.23-5.03.01-9.03,1.98-11.58,6.44-1.07,1.87-.92,3.15,1.7,3.12,3.32-.05,6.65-.01,9.97-.01Z"/>
        <path class="cls-2" d="M59.59,172.37c-6,0-12,.1-17.99-.05-3.56-.09-3.62,1.31-2.04,3.79,3.15,4.95,8.09,6.13,13.43,6.12,2.65,0,5.24-.73,7.78-1.64,2.35-.83,4.49-4.06,6.49-3.02,3.12,1.62,5.45,4.75,8.11,7.24,1.68,1.56,1.01,2.74-.4,4.14-9.57,9.47-31.96,9.9-43.83.77-11.4-8.77-14.44-25.46-6.97-38.28,7.52-12.91,24.56-18.36,38.88-12.38,13.74,5.74,17.86,19.09,17.95,30.31.02,2.45-1.17,3.07-3.42,3.03-6-.11-12-.04-17.99-.04ZM50.16,160.48c3.16,0,6.33-.14,9.48.04,3.69.2,3.41-1.49,2.13-3.88-4.13-7.75-16.83-7.89-21.89-.19-.61.93-1.42,2.25-1.17,3.12.48,1.69,2.26.83,3.46.88,2.66.12,5.32.04,7.98.04Z"/>
        <path class="cls-1" d="M127.68,88.71c0-12.81.07-25.62-.05-38.43-.03-3.08.64-4.49,4.11-4.32,5.65.28,11.32.18,16.97.03,2.66-.07,3.87.56,3.86,3.56-.1,26.45-.09,52.91,0,79.36,0,2.81-.93,3.86-3.72,3.81-5.66-.12-11.32-.18-16.98.02-3.48.13-4.61-1.14-4.57-4.62.16-13.14.07-26.28.07-39.41.11,0,.21,0,.32,0Z"/>
        <path class="cls-2" d="M127.65,172.85c.8,3.53.8,7.05,0,10.58-.42.01-1.13-.11-1.21.06-6.36,13.34-17.91,13.93-30.21,12.05-6.19-.95-11.65-3.91-16.23-8.29-.6-.57-1.73-1.35-1.62-1.76,1.11-3.93,5.08-5.33,7.53-8.12,1.67-1.89,3.11-.93,4.64.47,4.31,3.99,9.49,5.38,15.24,4.57,2.18-.31,4.55-.9,4.89-3.5.38-2.93-2.22-3.32-4.25-3.93-5.39-1.63-11.02-2.42-16.12-5.12-6.34-3.36-9.13-8.86-8.94-15.56.2-6.95,3.57-12.58,10.26-15.29,9.95-4.03,19.52-2.87,28.6,2.91,2.81,1.79,3.14,3.47.63,5.76-1.1,1-2.11,2.16-2.93,3.4-2.01,3.05-3.99,3.66-7.23,1.24-3.18-2.38-7.18-2.46-11.05-1.51-1.56.39-2.64,1.43-2.76,3.15-.13,1.82.97,2.72,2.57,3.16,2.72.76,5.42,1.64,8.18,2.22,8.14,1.7,15.34,4.65,18.75,13.1.11.26.82.28,1.25.42Z"/>
        <path class="cls-2" d="M370.17,127.51c-3.83,1.58-5.58-.43-7.34-2.51-2.58-3.04-4.72-7.68-7.94-8.63-3.58-1.06-4.85,4.75-7.77,7-9.27,7.14-19.35,8.72-30.08,4.54-13.87-5.4-17.53-23.39-7.25-34.43,3.66-3.92,7.89-7.2,12.63-9.67,3.13-1.63,3.64-2.88,1.12-5.74-3.87-4.4-6.99-9.32-6.75-15.64.24-6.35,3.85-11.7,9.59-13.93,5.55-2.16,12.31-.76,16.15,3.35,4.37,4.68,5.5,11.39,2.88,17.12-2.14,4.68-5.48,8.32-9.81,11.03-2.53,1.58-2.91,3.09-.8,5.51,5.48,6.26,10.79,12.66,16.08,19.09,1.94,2.36,2.98,2.21,3.75-.77,1.29-5.02,1.89-10.13,2.26-15.28.11-1.55-.48-3.82,2.12-3.6,2.46.21,1.77,2.47,1.71,3.98-.23,5.83-.88,11.67-2.95,17.13-1.4,3.68-.64,6.21,1.9,8.95,3.59,3.88,6.82,8.09,10.49,12.5ZM327.8,126.5c9.09-.22,16.37-3.8,21.63-11.38,1.68-2.42,1.81-4.26-.28-6.57-4.12-4.58-7.95-9.41-11.91-14.12-9.56-11.38-10.74-11.43-21.95-1.09-.24.23-.47.47-.71.7-6.17,5.99-8.02,13.59-5.09,20.92,2.78,6.96,10.02,11.53,18.31,11.54ZM342.78,62.45c-.1-6.76-4.99-11.78-11.17-11.47-6.73.34-11.49,6.1-10.62,12.93.68,5.33,3.47,9.61,6.96,13.5.77.87,1.57,1.56,3,1.18,4.95-1.31,11.91-10.71,11.83-16.15Z"/>
        <path class="cls-1" d="M123,17.09C123.04,7.54,130.61,0,140.15,0c9.64,0,16.95,7.47,16.88,17.24-.07,9.44-7.99,17.18-17.35,16.97-9.23-.21-16.73-7.9-16.68-17.11Z"/>
      </g>
    </g>
  </g>
</svg>