<?xml version="1.0" encoding="UTF-8"?>
<svg id="Calque_2" data-name="Calque 2" xmlns="http://www.w3.org/2000/svg" viewBox="0 0 48 48">
  <defs>
    <style>
      .cls-1 {
        fill: none;
      }

      .cls-2 {
        fill: #fff;
      }
    </style>
  </defs>
  <g id="Calque_1-2" data-name="Calque 1">
    <g>
      <path class="cls-2" d="M36.48,29.07c-.57-4.07-1.98-6.75-3.55-6.75h-.65v-1.33c0-2.23-.9-7.26-2.36-11.74-1.46-4.48-3.48-8.4-5.71-8.4-4.46,0-8.07,15.68-8.07,20.14v1.33h-.82c-1.57,0-2.98,2.68-3.55,6.75l-1.26,8.93h5.63v.94c0,2.17,1.76,3.92,3.92,3.92h1.4c-1.22,0-2.32.75-2.77,1.89l-.98,2.5h13.01l-.98-2.5c-.45-1.14-1.55-1.89-2.77-1.89h1.4c2.17,0,3.92-1.76,3.92-3.92v-.94h5.46l-1.26-8.93ZM22.09,36.27l.88-8.93c.22-2.27.63-4.11,1.14-5.29.51,1.18.92,3.02,1.14,5.29l.88,8.93h-4.05ZM24.28,15.89c-1.47,0-2.66-1.19-2.66-2.66s1.19-2.66,2.66-2.66,2.66,1.19,2.66,2.66-1.19,2.66-2.66,2.66Z"/>
      <rect class="cls-1" width="48" height="48"/>
    </g>
  </g>
</svg>